<svg width="338" height="117" viewBox="0 0 338 117" fill="none" xmlns="http://www.w3.org/2000/svg">
<path d="M47.5392 102C46.3872 102 45.7632 101.472 45.6672 100.416L43.3632 86.592C43.3632 86.112 43.0752 85.872 42.4992 85.872H24.2112C23.6352 85.872 23.3472 86.112 23.3472 86.592L21.0432 100.416C20.9472 101.472 20.3232 102 19.1712 102H2.32319C1.07519 102 0.595188 101.376 0.883188 100.128L22.0512 2.784C22.2432 1.72799 22.8672 1.19999 23.9232 1.19999H43.3632C44.4192 1.19999 45.0432 1.72799 45.2352 2.784L66.2592 100.128L66.4032 100.704C66.4032 101.568 65.8752 102 64.8192 102H47.5392ZM26.2272 69.456C26.2272 69.936 26.4192 70.176 26.8032 70.176H39.7632C40.2432 70.176 40.4352 69.936 40.3392 69.456L33.5712 30.144C33.4752 29.856 33.3312 29.712 33.1392 29.712C32.9472 29.712 32.8032 29.856 32.7072 30.144L26.2272 69.456ZM114.416 102C113.36 102 112.688 101.52 112.4 100.56L101.312 60.816C101.12 60.432 100.88 60.24 100.592 60.24H95.6959C95.2159 60.24 94.9759 60.48 94.9759 60.96V100.272C94.9759 100.752 94.7839 101.184 94.3999 101.568C94.1119 101.856 93.7279 102 93.2479 102H76.3999C75.9199 102 75.4879 101.856 75.1039 101.568C74.8159 101.184 74.6719 100.752 74.6719 100.272V2.928C74.6719 2.448 74.8159 2.064 75.1039 1.77599C75.4879 1.39199 75.9199 1.19999 76.3999 1.19999H105.488C110.768 1.19999 115.472 2.49599 119.6 5.08799C123.728 7.584 126.896 11.136 129.104 15.744C131.408 20.352 132.56 25.632 132.56 31.584C132.56 37.248 131.456 42.24 129.248 46.56C127.136 50.88 124.16 54.24 120.32 56.64C120.128 56.736 119.984 56.88 119.888 57.072C119.792 57.168 119.792 57.312 119.888 57.504L133.136 99.984L133.28 100.56C133.28 101.52 132.752 102 131.696 102H114.416ZM95.6959 18.624C95.2159 18.624 94.9759 18.864 94.9759 19.344V43.968C94.9759 44.448 95.2159 44.688 95.6959 44.688H102.176C105.152 44.688 107.552 43.536 109.376 41.232C111.296 38.832 112.256 35.664 112.256 31.728C112.256 27.696 111.296 24.528 109.376 22.224C107.552 19.824 105.152 18.624 102.176 18.624H95.6959ZM188.533 2.352C188.917 1.58399 189.637 1.19999 190.693 1.19999H207.397C207.877 1.19999 208.261 1.39199 208.549 1.77599C208.933 2.064 209.125 2.448 209.125 2.928V100.272C209.125 100.752 208.933 101.184 208.549 101.568C208.261 101.856 207.877 102 207.397 102H190.549C190.069 102 189.637 101.856 189.253 101.568C188.965 101.184 188.821 100.752 188.821 100.272V35.616C188.821 35.232 188.725 35.04 188.533 35.04C188.341 35.04 188.149 35.184 187.957 35.472L176.725 55.344C176.245 56.112 175.861 56.496 175.573 56.496C175.285 56.496 174.901 56.112 174.421 55.344L163.189 35.472C162.997 35.184 162.805 35.04 162.613 35.04C162.421 35.04 162.325 35.232 162.325 35.616V100.272C162.325 100.752 162.133 101.184 161.749 101.568C161.461 101.856 161.077 102 160.597 102H143.749C143.269 102 142.837 101.856 142.453 101.568C142.165 101.184 142.021 100.752 142.021 100.272V2.928C142.021 2.448 142.165 2.064 142.453 1.77599C142.837 1.39199 143.269 1.19999 143.749 1.19999H160.309C161.269 1.19999 161.989 1.58399 162.469 2.352L175.285 25.248C175.573 25.632 175.861 25.632 176.149 25.248L188.533 2.352ZM223.072 102C222.592 102 222.16 101.856 221.776 101.568C221.488 101.184 221.344 100.752 221.344 100.272V2.928C221.344 2.448 221.488 2.064 221.776 1.77599C222.16 1.39199 222.592 1.19999 223.072 1.19999H239.92C240.4 1.19999 240.784 1.39199 241.072 1.77599C241.456 2.064 241.648 2.448 241.648 2.928V83.856C241.648 84.336 241.888 84.576 242.368 84.576H272.608C273.088 84.576 273.472 84.768 273.76 85.152C274.144 85.44 274.336 85.824 274.336 86.304V100.272C274.336 100.752 274.144 101.184 273.76 101.568C273.472 101.856 273.088 102 272.608 102H223.072ZM308.878 0.0479994C317.422 0.0479994 324.286 2.784 329.47 8.256C334.654 13.632 337.246 20.736 337.246 29.568V73.632C337.246 80.352 335.662 86.16 332.494 91.056C329.422 95.952 325.15 99.408 319.678 101.424C319.294 101.52 319.102 101.76 319.102 102.144V114.384C319.102 114.864 318.91 115.248 318.526 115.536C318.238 115.92 317.854 116.112 317.374 116.112H300.526C300.046 116.112 299.614 115.92 299.23 115.536C298.942 115.248 298.798 114.864 298.798 114.384V102.144C298.798 101.76 298.606 101.52 298.222 101.424C292.75 99.408 288.43 95.952 285.262 91.056C282.19 86.16 280.654 80.352 280.654 73.632V29.568C280.654 23.712 281.806 18.576 284.11 14.16C286.51 9.648 289.822 6.192 294.046 3.79199C298.366 1.296 303.31 0.0479994 308.878 0.0479994ZM300.958 75.792C300.958 78.768 301.678 81.168 303.118 82.992C304.558 84.816 306.478 85.728 308.878 85.728C311.278 85.728 313.198 84.816 314.638 82.992C316.174 81.168 316.942 78.768 316.942 75.792V27.408C316.942 24.432 316.174 22.032 314.638 20.208C313.198 18.384 311.278 17.472 308.878 17.472C306.478 17.472 304.558 18.384 303.118 20.208C301.678 22.032 300.958 24.432 300.958 27.408V75.792Z" fill="white"/>
</svg>
